<?xml version="1.0" standalone="no"?>
<!DOCTYPE svg PUBLIC "-//W3C//DTD SVG 20010904//EN"
 "http://www.w3.org/TR/2001/REC-SVG-20010904/DTD/svg10.dtd">
<svg version="1.0" xmlns="http://www.w3.org/2000/svg"
 width="700.000000pt" height="700.000000pt" viewBox="0 0 700.000000 700.000000"
 preserveAspectRatio="xMidYMid meet">
<metadata>
Created by potrace 1.14, written by Peter Selinger 2001-2017
</metadata>
<g transform="translate(0.000000,700.000000) scale(0.100000,-0.100000)"
fill="#000000" stroke="none">
<path d="M3378 6415 c-2 -1 -48 -5 -103 -9 -55 -3 -120 -9 -145 -12 -45 -6
-278 -48 -315 -58 -410 -103 -772 -278 -1105 -535 -224 -173 -453 -416 -621
-661 -241 -350 -429 -835 -475 -1225 -4 -27 -8 -52 -9 -55 -8 -13 -19 -227
-19 -360 0 -225 11 -345 50 -545 155 -815 649 -1523 1360 -1953 324 -195 731
-341 1079 -387 28 -4 61 -9 75 -11 108 -17 415 -23 589 -11 57 4 107 9 110 11
3 2 33 6 66 10 33 3 114 18 180 31 160 34 146 30 260 66 849 266 1528 893
1855 1713 91 229 144 432 184 706 26 176 26 538 1 730 -55 409 -190 799 -395
1140 -168 279 -420 571 -650 754 -47 37 -94 75 -105 84 -52 43 -262 176 -364
231 -346 185 -717 297 -1121 336 -64 7 -377 15 -382 10z m-637 -1152 c37 -53
39 -56 130 -163 346 -410 878 -753 1389 -898 168 -47 288 -74 395 -87 28 -4
61 -8 75 -11 136 -23 511 -23 690 0 133 17 146 19 249 41 36 7 67 13 68 11 1
-1 13 -47 27 -101 27 -109 51 -252 61 -355 6 -72 7 -332 0 -395 -16 -163 -33
-258 -67 -385 -11 -41 -21 -82 -23 -90 -14 -60 -82 -233 -136 -346 -154 -321
-404 -623 -709 -857 -82 -63 -263 -173 -360 -219 -138 -66 -172 -80 -286 -117
-578 -194 -1183 -159 -1738 99 -131 61 -346 193 -433 267 -12 10 -37 29 -55
43 -56 42 -282 271 -340 345 -186 237 -315 481 -402 755 -37 116 -80 310 -91
410 -3 30 -8 73 -11 95 -5 51 -5 343 0 370 3 11 5 32 5 47 1 23 12 32 99 74
294 145 546 326 787 568 261 262 462 557 609 889 13 31 27 57 29 57 2 0 19
-21 38 -47z"/>
<path d="M4368 3575 c-2 -2 -24 -5 -50 -8 -110 -13 -219 -96 -271 -206 -86
-182 -6 -398 178 -482 251 -113 533 82 512 355 -14 170 -142 308 -312 334 -30
5 -56 8 -57 7z"/>
<path d="M2530 3563 c-55 -19 -123 -60 -159 -96 -37 -36 -79 -99 -88 -132 -36
-136 -22 -245 44 -334 187 -253 561 -186 649 115 46 160 -39 345 -196 422 -46
23 -69 27 -145 29 -49 0 -97 -1 -105 -4z"/>
</g>
</svg>
