<svg xmlns="http://www.w3.org/2000/svg" width="51" height="512">
<style>text{font-family:'Droid Sans Mono';font-weight:normal;font-style:normal;}</style>
<rect width="100%" height="100%" style="fill:#181818"></rect>
<text transform="translate(1,135)" font-size="20" style="fill:#d8d8d8">site</text>
<text transform="translate(32,245) rotate(-90)" font-size="20" style="fill:#d8d8d8">python</text>
<text transform="translate(5,22)" font-size="18" style="fill:#c1ced2">post</text>
<text transform="translate(41,463) rotate(-90)" font-size="16" style="fill:#aac3cd">simple</text>
<text transform="translate(8,491)" font-size="16" style="fill:#aac3cd">ssg</text>
<text transform="translate(14,305) rotate(-90)" font-size="16" style="fill:#aac3cd">enjoy</text>
<text transform="translate(36,322) rotate(-90)" font-size="16" style="fill:#aac3cd">worked</text>
<text transform="translate(43,114) rotate(-90)" font-size="16" style="fill:#aac3cd">community</text>
<text transform="translate(21,373) rotate(-90)" font-size="16" style="fill:#aac3cd">android</text>
<text transform="translate(37,375) rotate(-90)" font-size="16" style="fill:#aac3cd">wrote</text>
<text transform="translate(19,466) rotate(-90)" font-size="16" style="fill:#aac3cd">college</text>
<text transform="translate(1,153)" font-size="16" style="fill:#aac3cd">armw</text>
<text transform="translate(21,107) rotate(-90)" font-size="16" style="fill:#aac3cd">jquery</text>
<text transform="translate(42,210) rotate(-90)" font-size="13" style="fill:#93b9c7">updated</text>
<text transform="translate(21,389)" font-size="13" style="fill:#93b9c7">jul</text>
<text transform="translate(12,205) rotate(-90)" font-size="13" style="fill:#93b9c7">world</text>
<text transform="translate(46,316) rotate(-90)" font-size="13" style="fill:#93b9c7">html</text>
<text transform="translate(1,474)" font-size="12" style="fill:#93b9c7">styled</text>
<text transform="translate(46,266) rotate(-90)" font-size="12" style="fill:#93b9c7">flutter</text>
<text transform="translate(1,38)" font-size="12" style="fill:#93b9c7">app</text>
<text transform="translate(46,368) rotate(-90)" font-size="12" style="fill:#93b9c7">service</text>
<text transform="translate(5,503)" font-size="12" style="fill:#93b9c7">events</text>
<text transform="translate(1,112)" font-size="12" style="fill:#93b9c7">axes</text>
<text transform="translate(7,248) rotate(-90)" font-size="12" style="fill:#93b9c7">game</text>
<text transform="translate(6,509)" font-size="7" style="fill:#93b9c7">brochstein</text>
<text transform="translate(11,254)" font-size="7" style="fill:#93b9c7">rice</text>
<text transform="translate(8,141)" font-size="7" style="fill:#93b9c7">windows</text>
<text transform="translate(8,8)" font-size="7" style="fill:#93b9c7">java</text>
<text transform="translate(36,399)" font-size="7" style="fill:#93b9c7">vue</text>
<text transform="translate(8,97) rotate(-90)" font-size="7" style="fill:#93b9c7">wordpress</text>
<text transform="translate(48,196) rotate(-90)" font-size="7" style="fill:#93b9c7">student</text>
<text transform="translate(6,387) rotate(-90)" font-size="7" style="fill:#93b9c7">computer</text>
<text transform="translate(14,239) rotate(-90)" font-size="7" style="fill:#93b9c7">desktop</text>
<text transform="translate(1,116)" font-size="5" style="fill:#93b9c7">university</text>
<text transform="translate(14,167)" font-size="5" style="fill:#93b9c7">things</text>
<text transform="translate(8,157)" font-size="5" style="fill:#93b9c7">flag</text>
<text transform="translate(28,5)" font-size="5" style="fill:#93b9c7">indents</text>
<text transform="translate(14,376)" font-size="5" style="fill:#93b9c7">amd</text>
<text transform="translate(24,402)" font-size="4" style="fill:#7cafc2">cloud</text>
<text transform="translate(10,396)" font-size="4" style="fill:#7cafc2">summarize</text>
<text transform="translate(18,27)" font-size="4" style="fill:#7cafc2">posts</text>
<text transform="translate(3,46)" font-size="4" style="fill:#7cafc2">written</text>
<text transform="translate(4,495)" font-size="4" style="fill:#7cafc2">haxcon</text>
<text transform="translate(44,149) rotate(-90)" font-size="4" style="fill:#7cafc2">hello</text>
<text transform="translate(27,478)" font-size="4" style="fill:#7cafc2">welcome</text>
<text transform="translate(16,201) rotate(-90)" font-size="4" style="fill:#7cafc2">talk</text>
<text transform="translate(31,26)" font-size="4" style="fill:#7cafc2">future</text>
<text transform="translate(24,98)" font-size="4" style="fill:#7cafc2">web</text>
<text transform="translate(5,418) rotate(-90)" font-size="4" style="fill:#7cafc2">development</text>
<text transform="translate(7,385)" font-size="4" style="fill:#7cafc2">today</text>
<text transform="translate(29,88) rotate(-90)" font-size="4" style="fill:#7cafc2">discussing</text>
<text transform="translate(49,481) rotate(-90)" font-size="4" style="fill:#7cafc2">javascript</text>
<text transform="translate(14,172)" font-size="4" style="fill:#7cafc2">rule</text>
<text transform="translate(31,122)" font-size="4" style="fill:#7cafc2">first</text>
<text transform="translate(15,258)" font-size="4" style="fill:#7cafc2">created</text>
<text transform="translate(5,334) rotate(-90)" font-size="4" style="fill:#7cafc2">addition</text>
<text transform="translate(48,159) rotate(-90)" font-size="4" style="fill:#7cafc2">converts</text>
<text transform="translate(25,443) rotate(-90)" font-size="4" style="fill:#7cafc2">markdown</text>
<text transform="translate(47,104) rotate(-90)" font-size="4" style="fill:#7cafc2">properly</text>
<text transform="translate(46,429) rotate(-90)" font-size="4" style="fill:#7cafc2">formatted</text>
<text transform="translate(48,80) rotate(-90)" font-size="4" style="fill:#7cafc2">automatically</text>
<text transform="translate(18,246) rotate(-90)" font-size="4" style="fill:#7cafc2">populates</text>
<text transform="translate(21,453)" font-size="4" style="fill:#7cafc2">fun</text>
<text transform="translate(36,276)" font-size="4" style="fill:#7cafc2">page</text>
<text transform="translate(36,281)" font-size="4" style="fill:#7cafc2">every</text>
<text transform="translate(29,465)" font-size="4" style="fill:#7cafc2">new</text>
<text transform="translate(4,120)" font-size="4" style="fill:#7cafc2">make</text>
<text transform="translate(1,29)" font-size="4" style="fill:#7cafc2">sorts</text>
<text transform="translate(33,213)" font-size="4" style="fill:#7cafc2">oldest</text>
<text transform="translate(34,392)" font-size="4" style="fill:#7cafc2">recent</text>
<text transform="translate(25,323) rotate(-90)" font-size="4" style="fill:#7cafc2">modification</text>
<text transform="translate(27,9)" font-size="4" style="fill:#7cafc2">date</text>
<text transform="translate(37,486)" font-size="4" style="fill:#7cafc2">hope</text>
<text transform="translate(16,338)" font-size="4" style="fill:#7cafc2">list</text>
<text transform="translate(49,445) rotate(-90)" font-size="4" style="fill:#7cafc2">projects</text>
<text transform="translate(25,368) rotate(-90)" font-size="4" style="fill:#7cafc2">arranged</text>
</svg>