<svg xmlns="http://www.w3.org/2000/svg" width="256" height="512">
<style>text{font-family:'Droid Sans Mono';font-weight:normal;font-style:normal;}</style>
<rect width="100%" height="100%" style="fill:#181818"></rect>
<text transform="translate(25,210)" font-size="84" style="fill:#d8d8d8">site</text>
<text transform="translate(2,464)" font-size="70" style="fill:#d8d8d8">python</text>
<text transform="translate(15,259)" font-size="63" style="fill:#c1ced2">post</text>
<text transform="translate(5,364)" font-size="55" style="fill:#aac3cd">simple</text>
<text transform="translate(38,101)" font-size="55" style="fill:#aac3cd">ssg</text>
<text transform="translate(83,46)" font-size="55" style="fill:#aac3cd">enjoy</text>
<text transform="translate(35,304)" font-size="55" style="fill:#aac3cd">worked</text>
<text transform="translate(68,495)" font-size="34" style="fill:#aac3cd">community</text>
<text transform="translate(248,217) rotate(-90)" font-size="34" style="fill:#aac3cd">android</text>
<text transform="translate(115,138)" font-size="34" style="fill:#aac3cd">wrote</text>
<text transform="translate(27,145) rotate(-90)" font-size="34" style="fill:#aac3cd">college</text>
<text transform="translate(6,387)" font-size="34" style="fill:#aac3cd">armw</text>
<text transform="translate(114,394)" font-size="34" style="fill:#aac3cd">jquery</text>
<text transform="translate(2,406)" font-size="23" style="fill:#93b9c7">updated</text>
<text transform="translate(150,95)" font-size="23" style="fill:#93b9c7">jul</text>
<text transform="translate(60,325)" font-size="23" style="fill:#93b9c7">world</text>
<text transform="translate(32,61)" font-size="23" style="fill:#93b9c7">html</text>
<text transform="translate(165,236)" font-size="23" style="fill:#93b9c7">styled</text>
<text transform="translate(157,327)" font-size="23" style="fill:#93b9c7">flutter</text>
<text transform="translate(34,139)" font-size="23" style="fill:#93b9c7">app</text>
<text transform="translate(141,419)" font-size="22" style="fill:#93b9c7">service</text>
<text transform="translate(23,223) rotate(-90)" font-size="22" style="fill:#93b9c7">events</text>
<text transform="translate(160,151)" font-size="22" style="fill:#93b9c7">axes</text>
<text transform="translate(201,353)" font-size="22" style="fill:#93b9c7">game</text>
<text transform="translate(50,508)" font-size="16" style="fill:#93b9c7">brochstein</text>
<text transform="translate(36,25)" font-size="16" style="fill:#93b9c7">rice</text>
<text transform="translate(28,116)" font-size="16" style="fill:#93b9c7">windows</text>
<text transform="translate(171,256)" font-size="16" style="fill:#93b9c7">java</text>
<text transform="translate(245,402) rotate(-90)" font-size="16" style="fill:#93b9c7">vue</text>
<text transform="translate(21,417)" font-size="14" style="fill:#93b9c7">wordpress</text>
<text transform="translate(161,107)" font-size="14" style="fill:#93b9c7">student</text>
<text transform="translate(150,70)" font-size="14" style="fill:#93b9c7">computer</text>
<text transform="translate(90,64)" font-size="14" style="fill:#93b9c7">desktop</text>
<text transform="translate(12,325) rotate(-90)" font-size="14" style="fill:#93b9c7">university</text>
<text transform="translate(42,156)" font-size="14" style="fill:#93b9c7">things</text>
<text transform="translate(133,211) rotate(-90)" font-size="14" style="fill:#93b9c7">flag</text>
<text transform="translate(65,12)" font-size="14" style="fill:#93b9c7">indents</text>
<text transform="translate(221,369)" font-size="14" style="fill:#93b9c7">amd</text>
<text transform="translate(159,158)" font-size="10" style="fill:#7cafc2">cloud</text>
<text transform="translate(198,335)" font-size="10" style="fill:#7cafc2">summarize</text>
<text transform="translate(123,9)" font-size="10" style="fill:#7cafc2">posts</text>
<text transform="translate(152,505)" font-size="10" style="fill:#7cafc2">written</text>
<text transform="translate(192,9)" font-size="10" style="fill:#7cafc2">haxcon</text>
<text transform="translate(19,327)" font-size="10" style="fill:#7cafc2">hello</text>
<text transform="translate(246,286) rotate(-90)" font-size="10" style="fill:#7cafc2">welcome</text>
<text transform="translate(15,488)" font-size="10" style="fill:#7cafc2">talk</text>
<text transform="translate(185,264)" font-size="10" style="fill:#7cafc2">future</text>
<text transform="translate(17,300)" font-size="10" style="fill:#7cafc2">web</text>
<text transform="translate(50,267)" font-size="10" style="fill:#7cafc2">development</text>
<text transform="translate(113,147)" font-size="10" style="fill:#7cafc2">today</text>
<text transform="translate(65,217)" font-size="10" style="fill:#7cafc2">discussing</text>
<text transform="translate(105,472)" font-size="8" style="fill:#7cafc2">javascript</text>
<text transform="translate(111,455)" font-size="8" style="fill:#7cafc2">rule</text>
<text transform="translate(219,73)" font-size="8" style="fill:#7cafc2">first</text>
<text transform="translate(100,162)" font-size="8" style="fill:#7cafc2">created</text>
<text transform="translate(251,63) rotate(-90)" font-size="8" style="fill:#7cafc2">addition</text>
<text transform="translate(56,122)" font-size="8" style="fill:#7cafc2">converts</text>
<text transform="translate(8,498)" font-size="8" style="fill:#7cafc2">markdown</text>
<text transform="translate(80,203) rotate(-90)" font-size="8" style="fill:#7cafc2">properly</text>
<text transform="translate(154,372)" font-size="8" style="fill:#7cafc2">formatted</text>
<text transform="translate(176,221) rotate(-90)" font-size="8" style="fill:#7cafc2">automatically</text>
<text transform="translate(13,316)" font-size="8" style="fill:#7cafc2">populates</text>
<text transform="translate(211,250)" font-size="8" style="fill:#7cafc2">fun</text>
<text transform="translate(35,35)" font-size="8" style="fill:#7cafc2">page</text>
<text transform="translate(86,198) rotate(-90)" font-size="8" style="fill:#7cafc2">every</text>
<text transform="translate(237,304)" font-size="8" style="fill:#7cafc2">new</text>
<text transform="translate(140,115)" font-size="8" style="fill:#7cafc2">make</text>
<text transform="translate(201,92)" font-size="8" style="fill:#7cafc2">sorts</text>
<text transform="translate(29,8)" font-size="8" style="fill:#7cafc2">oldest</text>
<text transform="translate(163,400)" font-size="8" style="fill:#7cafc2">recent</text>
<text transform="translate(161,271)" font-size="8" style="fill:#7cafc2">modification</text>
<text transform="translate(15,473)" font-size="8" style="fill:#7cafc2">date</text>
<text transform="translate(4,505)" font-size="8" style="fill:#7cafc2">hope</text>
<text transform="translate(201,507)" font-size="8" style="fill:#7cafc2">list</text>
<text transform="translate(173,55)" font-size="8" style="fill:#7cafc2">projects</text>
<text transform="translate(114,201) rotate(-90)" font-size="8" style="fill:#7cafc2">arranged</text>
<text transform="translate(223,156) rotate(-90)" font-size="8" style="fill:#7cafc2">particular</text>
<text transform="translate(188,82)" font-size="8" style="fill:#7cafc2">order</text>
<text transform="translate(80,133)" font-size="8" style="fill:#7cafc2">serveup</text>
<text transform="translate(24,220)" font-size="8" style="fill:#7cafc2">students</text>
<text transform="translate(134,94)" font-size="8" style="fill:#7cafc2">sign</text>
<text transform="translate(72,470)" font-size="8" style="fill:#7cafc2">within</text>
<text transform="translate(27,67)" font-size="7" style="fill:#7cafc2">organization</text>
<text transform="translate(135,314)" font-size="7" style="fill:#7cafc2">high</text>
<text transform="translate(77,142)" font-size="7" style="fill:#7cafc2">school</text>
<text transform="translate(155,470)" font-size="7" style="fill:#7cafc2">office</text>
<text transform="translate(188,115)" font-size="7" style="fill:#7cafc2">arcade</text>
<text transform="translate(100,408)" font-size="7" style="fill:#7cafc2">player</text>
<text transform="translate(223,469)" font-size="7" style="fill:#7cafc2">targets</text>
<text transform="translate(196,196)" font-size="7" style="fill:#7cafc2">falling</text>
<text transform="translate(92,331)" font-size="7" style="fill:#7cafc2">blocks</text>
<text transform="translate(252,427) rotate(-90)" font-size="7" style="fill:#7cafc2">manipulating</text>
<text transform="translate(58,423)" font-size="7" style="fill:#7cafc2">crosshair</text>
<text transform="translate(140,356) rotate(-90)" font-size="7" style="fill:#7cafc2">showcasing</text>
<text transform="translate(253,269) rotate(-90)" font-size="7" style="fill:#7cafc2">architectural</text>
<text transform="translate(93,384)" font-size="7" style="fill:#7cafc2">merits</text>
<text transform="translate(34,103) rotate(-90)" font-size="7" style="fill:#7cafc2">pavilion</text>
<text transform="translate(62,356) rotate(-90)" font-size="7" style="fill:#7cafc2">summary</text>
<text transform="translate(39,360) rotate(-90)" font-size="7" style="fill:#7cafc2">project</text>
<text transform="translate(30,194) rotate(-90)" font-size="7" style="fill:#7cafc2">architecture</text>
<text transform="translate(24,509)" font-size="7" style="fill:#7cafc2">class</text>
<text transform="translate(98,394)" font-size="7" style="fill:#7cafc2">toy</text>
<text transform="translate(223,311)" font-size="7" style="fill:#7cafc2">window</text>
<text transform="translate(158,201) rotate(-90)" font-size="7" style="fill:#7cafc2">manager</text>
<text transform="translate(202,160)" font-size="7" style="fill:#7cafc2">x11</text>
<text transform="translate(135,269) rotate(-90)" font-size="7" style="fill:#7cafc2">randomly</text>
<text transform="translate(177,35) rotate(-90)" font-size="7" style="fill:#7cafc2">manages</text>
<text transform="translate(7,235) rotate(-90)" font-size="7" style="fill:#7cafc2">generalissimo</text>
<text transform="translate(57,34)" font-size="7" style="fill:#7cafc2">client</text>
<text transform="translate(235,292) rotate(-90)" font-size="7" style="fill:#7cafc2">webdiplomacy</text>
<text transform="translate(4,87)" font-size="7" style="fill:#7cafc2">net</text>
<text transform="translate(94,257) rotate(-90)" font-size="7" style="fill:#7cafc2">dedicated</text>
<text transform="translate(156,51) rotate(-90)" font-size="7" style="fill:#7cafc2">hosting</text>
<text transform="translate(90,461) rotate(-90)" font-size="7" style="fill:#7cafc2">popular</text>
<text transform="translate(46,473) rotate(-90)" font-size="7" style="fill:#7cafc2">strategy</text>
<text transform="translate(128,446) rotate(-90)" font-size="7" style="fill:#7cafc2">diplomacy</text>
<text transform="translate(205,362)" font-size="7" style="fill:#7cafc2">org</text>
<text transform="translate(221,508)" font-size="6" style="fill:#7cafc2">wikipedia</text>
<text transform="translate(1,66)" font-size="6" style="fill:#7cafc2">esque</text>
<text transform="translate(236,452) rotate(-90)" font-size="6" style="fill:#7cafc2">index</text>
<text transform="translate(208,14)" font-size="6" style="fill:#7cafc2">theatre</text>
<text transform="translate(6,364) rotate(-90)" font-size="6" style="fill:#7cafc2">philosophy</text>
<text transform="translate(12,305)" font-size="6" style="fill:#7cafc2">topics</text>
<text transform="translate(105,97) rotate(-90)" font-size="6" style="fill:#7cafc2">compiled</text>
<text transform="translate(177,216)" font-size="6" style="fill:#7cafc2">academic</text>
<text transform="translate(7,422)" font-size="6" style="fill:#7cafc2">researchers</text>
<text transform="translate(17,284)" font-size="6" style="fill:#7cafc2">part</text>
<text transform="translate(40,161)" font-size="6" style="fill:#7cafc2">webdev</text>
<text transform="translate(178,163)" font-size="6" style="fill:#7cafc2">job</text>
<text transform="translate(23,453) rotate(-90)" font-size="6" style="fill:#7cafc2">log</text>
<text transform="translate(114,302)" font-size="6" style="fill:#7cafc2">script</text>
<text transform="translate(148,242)" font-size="6" style="fill:#7cafc2">analyze</text>
<text transform="translate(234,296)" font-size="6" style="fill:#7cafc2">video</text>
<text transform="translate(116,292)" font-size="6" style="fill:#7cafc2">logs</text>
<text transform="translate(27,268)" font-size="6" style="fill:#7cafc2">lab</text>
<text transform="translate(72,102) rotate(-90)" font-size="6" style="fill:#7cafc2">equipment</text>
<text transform="translate(28,121)" font-size="6" style="fill:#7cafc2">extract</text>
<text transform="translate(253,208) rotate(-90)" font-size="6" style="fill:#7cafc2">measurement</text>
<text transform="translate(44,487)" font-size="6" style="fill:#7cafc2">values</text>
<text transform="translate(135,49) rotate(-90)" font-size="6" style="fill:#7cafc2">using</text>
<text transform="translate(192,399)" font-size="6" style="fill:#7cafc2">vision</text>
<text transform="translate(188,455) rotate(-90)" font-size="6" style="fill:#7cafc2">opencv</text>
<text transform="translate(141,457)" font-size="6" style="fill:#7cafc2">help</text>
<text transform="translate(129,371)" font-size="6" style="fill:#7cafc2">duties</text>
<text transform="translate(92,272)" font-size="6" style="fill:#7cafc2">intern</text>
<text transform="translate(231,6)" font-size="6" style="fill:#7cafc2">fannin</text>
<text transform="translate(39,272)" font-size="6" style="fill:#7cafc2">innovation</text>
<text transform="translate(139,208) rotate(-90)" font-size="6" style="fill:#7cafc2">studio</text>
<text transform="translate(32,198)" font-size="6" style="fill:#7cafc2">wankel</text>
<text transform="translate(161,49) rotate(-90)" font-size="6" style="fill:#7cafc2">social</text>
<text transform="translate(103,302) rotate(-90)" font-size="6" style="fill:#7cafc2">platform</text>
<text transform="translate(235,139)" font-size="6" style="fill:#7cafc2">based</text>
<text transform="translate(157,332)" font-size="6" style="fill:#7cafc2">around</text>
<text transform="translate(14,478)" font-size="6" style="fill:#7cafc2">central</text>
<text transform="translate(54,40)" font-size="6" style="fill:#7cafc2">timeline</text>
<text transform="translate(112,151)" font-size="6" style="fill:#7cafc2">users</text>
<text transform="translate(69,358) rotate(-90)" font-size="6" style="fill:#7cafc2">completed</text>
<text transform="translate(19,288)" font-size="6" style="fill:#7cafc2">sass</text>
<text transform="translate(253,130) rotate(-90)" font-size="6" style="fill:#7cafc2">website</text>
<text transform="translate(253,95) rotate(-90)" font-size="6" style="fill:#7cafc2">rendered</text>
<text transform="translate(148,249)" font-size="6" style="fill:#7cafc2">served</text>
<text transform="translate(162,112)" font-size="6" style="fill:#7cafc2">via</text>
<text transform="translate(216,219)" font-size="6" style="fill:#7cafc2">github</text>
<text transform="translate(131,82)" font-size="6" style="fill:#7cafc2">pages</text>
<text transform="translate(153,150) rotate(-90)" font-size="6" style="fill:#7cafc2">operate</text>
<text transform="translate(170,458) rotate(-90)" font-size="6" style="fill:#7cafc2">collection</text>
<text transform="translate(145,355) rotate(-90)" font-size="6" style="fill:#7cafc2">jinja2</text>
<text transform="translate(228,155)" font-size="4" style="fill:#7cafc2">templates</text>
<text transform="translate(184,423)" font-size="4" style="fill:#7cafc2">responsiveness</text>
<text transform="translate(111,234)" font-size="4" style="fill:#7cafc2">across</text>
<text transform="translate(177,510)" font-size="4" style="fill:#7cafc2">mobile</text>
<text transform="translate(211,473) rotate(-90)" font-size="4" style="fill:#7cafc2">browsers</text>
<text transform="translate(142,13)" font-size="4" style="fill:#7cafc2">programmer</text>
<text transform="translate(28,246)" font-size="4" style="fill:#7cafc2">tech</text>
<text transform="translate(88,51)" font-size="4" style="fill:#7cafc2">enthusiast</text>
<text transform="translate(69,332)" font-size="4" style="fill:#7cafc2">arch</text>
<text transform="translate(14,332)" font-size="4" style="fill:#7cafc2">linux</text>
<text transform="translate(181,473)" font-size="4" style="fill:#7cafc2">user</text>
<text transform="translate(70,309)" font-size="4" style="fill:#7cafc2">vexillologist</text>
<text transform="translate(134,398) rotate(-90)" font-size="4" style="fill:#7cafc2">novice</text>
<text transform="translate(136,399)" font-size="4" style="fill:#7cafc2">cook</text>
<text transform="translate(208,373)" font-size="4" style="fill:#7cafc2">proprietor</text>
<text transform="translate(253,455) rotate(-90)" font-size="4" style="fill:#7cafc2">language</text>
<text transform="translate(56,431)" font-size="4" style="fill:#7cafc2">choice</text>
<text transform="translate(220,358)" font-size="4" style="fill:#7cafc2">versed</text>
<text transform="translate(135,105)" font-size="4" style="fill:#7cafc2">especially</text>
<text transform="translate(94,110)" font-size="4" style="fill:#7cafc2">apps</text>
<text transform="translate(206,339)" font-size="4" style="fill:#7cafc2">experience</text>
<text transform="translate(206,389)" font-size="4" style="fill:#7cafc2">css</text>
<text transform="translate(209,290)" font-size="4" style="fill:#7cafc2">used</text>
<text transform="translate(112,69)" font-size="4" style="fill:#7cafc2">materialize</text>
<text transform="translate(214,255)" font-size="4" style="fill:#7cafc2">php</text>
<text transform="translate(221,96)" font-size="4" style="fill:#7cafc2">freshman</text>
<text transform="translate(186,403)" font-size="4" style="fill:#7cafc2">year</text>
<text transform="translate(234,143)" font-size="4" style="fill:#7cafc2">attended</text>
<text transform="translate(112,50)" font-size="4" style="fill:#7cafc2">texas</text>
<text transform="translate(127,212)" font-size="4" style="fill:#7cafc2">austin</text>
<text transform="translate(76,126)" font-size="4" style="fill:#7cafc2">transferred</text>
<text transform="translate(183,311)" font-size="4" style="fill:#7cafc2">houston</text>
<text transform="translate(154,474)" font-size="4" style="fill:#7cafc2">pursuing</text>
</svg>