<svg xmlns="http://www.w3.org/2000/svg" width="102" height="512">
<style>text{font-family:'Droid Sans Mono';font-weight:normal;font-style:normal;}</style>
<rect width="100%" height="100%" style="fill:#181818"></rect>
<text transform="translate(1,250)" font-size="41" style="fill:#d8d8d8">site</text>
<text transform="translate(61,406) rotate(-90)" font-size="41" style="fill:#d8d8d8">python</text>
<text transform="translate(4,126)" font-size="37" style="fill:#c1ced2">post</text>
<text transform="translate(2,43)" font-size="27" style="fill:#aac3cd">simple</text>
<text transform="translate(47,176)" font-size="27" style="fill:#aac3cd">ssg</text>
<text transform="translate(25,445) rotate(-90)" font-size="27" style="fill:#aac3cd">enjoy</text>
<text transform="translate(2,494)" font-size="27" style="fill:#aac3cd">worked</text>
<text transform="translate(1,208)" font-size="18" style="fill:#aac3cd">community</text>
<text transform="translate(18,74)" font-size="18" style="fill:#aac3cd">android</text>
<text transform="translate(30,432)" font-size="18" style="fill:#aac3cd">wrote</text>
<text transform="translate(6,459)" font-size="18" style="fill:#aac3cd">college</text>
<text transform="translate(8,152)" font-size="18" style="fill:#aac3cd">armw</text>
<text transform="translate(9,89)" font-size="18" style="fill:#aac3cd">jquery</text>
<text transform="translate(35,14)" font-size="15" style="fill:#93b9c7">updated</text>
<text transform="translate(3,279)" font-size="15" style="fill:#93b9c7">jul</text>
<text transform="translate(55,144)" font-size="15" style="fill:#93b9c7">world</text>
<text transform="translate(61,302)" font-size="15" style="fill:#93b9c7">html</text>
<text transform="translate(8,190)" font-size="15" style="fill:#93b9c7">styled</text>
<text transform="translate(90,416) rotate(-90)" font-size="15" style="fill:#93b9c7">flutter</text>
<text transform="translate(71,348) rotate(-90)" font-size="15" style="fill:#93b9c7">app</text>
<text transform="translate(20,347) rotate(-90)" font-size="15" style="fill:#93b9c7">service</text>
<text transform="translate(42,507)" font-size="15" style="fill:#93b9c7">events</text>
<text transform="translate(55,441)" font-size="15" style="fill:#93b9c7">axes</text>
<text transform="translate(11,468)" font-size="15" style="fill:#93b9c7">game</text>
<text transform="translate(2,101)" font-size="11" style="fill:#93b9c7">brochstein</text>
<text transform="translate(2,504)" font-size="11" style="fill:#93b9c7">rice</text>
<text transform="translate(4,52)" font-size="11" style="fill:#93b9c7">windows</text>
<text transform="translate(63,258)" font-size="11" style="fill:#93b9c7">java</text>
<text transform="translate(67,52)" font-size="11" style="fill:#93b9c7">vue</text>
<text transform="translate(42,215)" font-size="8" style="fill:#93b9c7">wordpress</text>
<text transform="translate(63,273)" font-size="8" style="fill:#93b9c7">student</text>
<text transform="translate(3,58)" font-size="8" style="fill:#93b9c7">computer</text>
<text transform="translate(8,351) rotate(-90)" font-size="8" style="fill:#93b9c7">desktop</text>
<text transform="translate(51,158)" font-size="8" style="fill:#93b9c7">university</text>
<text transform="translate(66,282)" font-size="8" style="fill:#93b9c7">things</text>
<text transform="translate(5,167)" font-size="8" style="fill:#93b9c7">flag</text>
<text transform="translate(63,319)" font-size="8" style="fill:#93b9c7">indents</text>
<text transform="translate(33,137)" font-size="8" style="fill:#93b9c7">amd</text>
<text transform="translate(80,188)" font-size="6" style="fill:#7cafc2">cloud</text>
<text transform="translate(42,414)" font-size="6" style="fill:#7cafc2">summarize</text>
<text transform="translate(72,349)" font-size="6" style="fill:#7cafc2">posts</text>
<text transform="translate(2,15)" font-size="6" style="fill:#7cafc2">written</text>
<text transform="translate(19,175)" font-size="6" style="fill:#7cafc2">haxcon</text>
<text transform="translate(79,220)" font-size="6" style="fill:#7cafc2">hello</text>
<text transform="translate(71,97)" font-size="6" style="fill:#7cafc2">welcome</text>
<text transform="translate(84,469)" font-size="6" style="fill:#7cafc2">talk</text>
<text transform="translate(30,358) rotate(-90)" font-size="6" style="fill:#7cafc2">future</text>
<text transform="translate(62,474)" font-size="6" style="fill:#7cafc2">web</text>
<text transform="translate(11,255)" font-size="6" style="fill:#7cafc2">development</text>
<text transform="translate(65,287)" font-size="6" style="fill:#7cafc2">today</text>
<text transform="translate(30,25)" font-size="6" style="fill:#7cafc2">discussing</text>
<text transform="translate(3,215)" font-size="6" style="fill:#7cafc2">javascript</text>
<text transform="translate(61,133)" font-size="6" style="fill:#7cafc2">rule</text>
<text transform="translate(81,446)" font-size="6" style="fill:#7cafc2">first</text>
<text transform="translate(46,446)" font-size="6" style="fill:#7cafc2">created</text>
<text transform="translate(63,307)" font-size="6" style="fill:#7cafc2">addition</text>
<text transform="translate(51,57)" font-size="6" style="fill:#7cafc2">converts</text>
<text transform="translate(10,477)" font-size="6" style="fill:#7cafc2">markdown</text>
<text transform="translate(47,355)" font-size="6" style="fill:#7cafc2">properly</text>
<text transform="translate(1,509)" font-size="6" style="fill:#7cafc2">formatted</text>
<text transform="translate(96,430) rotate(-90)" font-size="6" style="fill:#7cafc2">automatically</text>
<text transform="translate(1,223)" font-size="6" style="fill:#7cafc2">populates</text>
<text transform="translate(97,87) rotate(-90)" font-size="6" style="fill:#7cafc2">fun</text>
<text transform="translate(78,338)" font-size="6" style="fill:#7cafc2">page</text>
<text transform="translate(81,452)" font-size="6" style="fill:#7cafc2">every</text>
<text transform="translate(85,323)" font-size="6" style="fill:#7cafc2">new</text>
<text transform="translate(16,263)" font-size="6" style="fill:#7cafc2">make</text>
<text transform="translate(16,157)" font-size="6" style="fill:#7cafc2">sorts</text>
<text transform="translate(33,195)" font-size="6" style="fill:#7cafc2">oldest</text>
<text transform="translate(32,419)" font-size="6" style="fill:#7cafc2">recent</text>
<text transform="translate(99,378) rotate(-90)" font-size="6" style="fill:#7cafc2">modification</text>
<text transform="translate(33,398) rotate(-90)" font-size="6" style="fill:#7cafc2">date</text>
<text transform="translate(62,395)" font-size="6" style="fill:#7cafc2">hope</text>
<text transform="translate(25,437)" font-size="6" style="fill:#7cafc2">list</text>
<text transform="translate(4,6)" font-size="6" style="fill:#7cafc2">projects</text>
<text transform="translate(27,312) rotate(-90)" font-size="6" style="fill:#7cafc2">arranged</text>
<text transform="translate(35,310) rotate(-90)" font-size="6" style="fill:#7cafc2">particular</text>
<text transform="translate(71,263)" font-size="6" style="fill:#7cafc2">order</text>
<text transform="translate(95,124) rotate(-90)" font-size="6" style="fill:#7cafc2">serveup</text>
<text transform="translate(67,19)" font-size="6" style="fill:#7cafc2">students</text>
<text transform="translate(75,85)" font-size="6" style="fill:#7cafc2">sign</text>
<text transform="translate(77,225)" font-size="6" style="fill:#7cafc2">within</text>
<text transform="translate(70,148)" font-size="4" style="fill:#7cafc2">organization</text>
<text transform="translate(18,362)" font-size="4" style="fill:#7cafc2">high</text>
<text transform="translate(3,19)" font-size="4" style="fill:#7cafc2">school</text>
<text transform="translate(27,161)" font-size="4" style="fill:#7cafc2">office</text>
<text transform="translate(28,166)" font-size="4" style="fill:#7cafc2">arcade</text>
<text transform="translate(5,25)" font-size="4" style="fill:#7cafc2">player</text>
<text transform="translate(1,194)" font-size="4" style="fill:#7cafc2">targets</text>
<text transform="translate(75,331)" font-size="4" style="fill:#7cafc2">falling</text>
<text transform="translate(78,474)" font-size="4" style="fill:#7cafc2">blocks</text>
<text transform="translate(1,139)" font-size="4" style="fill:#7cafc2">manipulating</text>
<text transform="translate(47,407)" font-size="4" style="fill:#7cafc2">crosshair</text>
<text transform="translate(73,192)" font-size="4" style="fill:#7cafc2">showcasing</text>
<text transform="translate(22,333)" font-size="4" style="fill:#7cafc2">architectural</text>
<text transform="translate(84,27)" font-size="4" style="fill:#7cafc2">merits</text>
<text transform="translate(69,419)" font-size="4" style="fill:#7cafc2">pavilion</text>
<text transform="translate(82,55)" font-size="4" style="fill:#7cafc2">summary</text>
<text transform="translate(14,323)" font-size="4" style="fill:#7cafc2">project</text>
<text transform="translate(8,384) rotate(-90)" font-size="4" style="fill:#7cafc2">architecture</text>
<text transform="translate(87,457)" font-size="4" style="fill:#7cafc2">class</text>
<text transform="translate(43,237)" font-size="4" style="fill:#7cafc2">toy</text>
<text transform="translate(26,442)" font-size="4" style="fill:#7cafc2">window</text>
<text transform="translate(59,360)" font-size="4" style="fill:#7cafc2">manager</text>
<text transform="translate(52,381)" font-size="4" style="fill:#7cafc2">x11</text>
<text transform="translate(5,443) rotate(-90)" font-size="4" style="fill:#7cafc2">randomly</text>
<text transform="translate(11,129)" font-size="4" style="fill:#7cafc2">manages</text>
<text transform="translate(35,381) rotate(-90)" font-size="4" style="fill:#7cafc2">generalissimo</text>
<text transform="translate(54,62)" font-size="4" style="fill:#7cafc2">client</text>
<text transform="translate(5,315) rotate(-90)" font-size="4" style="fill:#7cafc2">webdiplomacy</text>
<text transform="translate(60,193)" font-size="4" style="fill:#7cafc2">net</text>
<text transform="translate(67,478)" font-size="4" style="fill:#7cafc2">dedicated</text>
<text transform="translate(61,180)" font-size="4" style="fill:#7cafc2">hosting</text>
<text transform="translate(41,219)" font-size="4" style="fill:#7cafc2">popular</text>
<text transform="translate(6,88) rotate(-90)" font-size="4" style="fill:#7cafc2">strategy</text>
<text transform="translate(56,255) rotate(-90)" font-size="4" style="fill:#7cafc2">diplomacy</text>
<text transform="translate(66,220)" font-size="4" style="fill:#7cafc2">org</text>
<text transform="translate(98,299) rotate(-90)" font-size="4" style="fill:#7cafc2">wikipedia</text>
<text transform="translate(20,236)" font-size="4" style="fill:#7cafc2">esque</text>
<text transform="translate(13,408)" font-size="4" style="fill:#7cafc2">index</text>
<text transform="translate(59,383)" font-size="4" style="fill:#7cafc2">theatre</text>
<text transform="translate(99,130) rotate(-90)" font-size="4" style="fill:#7cafc2">philosophy</text>
<text transform="translate(50,467)" font-size="4" style="fill:#7cafc2">topics</text>
<text transform="translate(5,477) rotate(-90)" font-size="4" style="fill:#7cafc2">compiled</text>
<text transform="translate(100,424) rotate(-90)" font-size="4" style="fill:#7cafc2">academic</text>
<text transform="translate(37,409) rotate(-90)" font-size="4" style="fill:#7cafc2">researchers</text>
<text transform="translate(22,178)" font-size="4" style="fill:#7cafc2">part</text>
<text transform="translate(26,18)" font-size="4" style="fill:#7cafc2">webdev</text>
<text transform="translate(90,434)" font-size="4" style="fill:#7cafc2">job</text>
<text transform="translate(72,463)" font-size="4" style="fill:#7cafc2">log</text>
<text transform="translate(50,439) rotate(-90)" font-size="4" style="fill:#7cafc2">script</text>
<text transform="translate(81,39) rotate(-90)" font-size="4" style="fill:#7cafc2">analyze</text>
<text transform="translate(1,173)" font-size="4" style="fill:#7cafc2">video</text>
<text transform="translate(1,263)" font-size="4" style="fill:#7cafc2">logs</text>
<text transform="translate(32,498)" font-size="4" style="fill:#7cafc2">lab</text>
<text transform="translate(100,263) rotate(-90)" font-size="4" style="fill:#7cafc2">equipment</text>
<text transform="translate(72,126) rotate(-90)" font-size="4" style="fill:#7cafc2">extract</text>
</svg>