<svg xmlns="http://www.w3.org/2000/svg" width="358" height="512">
<style>text{font-family:'Droid Sans Mono';font-weight:normal;font-style:normal;}</style>
<rect width="100%" height="100%" style="fill:#181818"></rect>
<text transform="translate(74,373)" font-size="117" style="fill:#d8d8d8">site</text>
<text transform="translate(3,221)" font-size="98" style="fill:#d8d8d8">python</text>
<text transform="translate(119,459)" font-size="88" style="fill:#c1ced2">post</text>
<text transform="translate(23,84)" font-size="77" style="fill:#aac3cd">simple</text>
<text transform="translate(209,122)" font-size="68" style="fill:#aac3cd">ssg</text>
<text transform="translate(55,497) rotate(-90)" font-size="68" style="fill:#aac3cd">enjoy</text>
<text transform="translate(116,270)" font-size="63" style="fill:#aac3cd">worked</text>
<text transform="translate(134,492)" font-size="41" style="fill:#aac3cd">community</text>
<text transform="translate(37,134)" font-size="41" style="fill:#aac3cd">android</text>
<text transform="translate(106,506) rotate(-90)" font-size="41" style="fill:#aac3cd">wrote</text>
<text transform="translate(161,397)" font-size="30" style="fill:#aac3cd">college</text>
<text transform="translate(259,24)" font-size="30" style="fill:#aac3cd">armw</text>
<text transform="translate(102,26)" font-size="30" style="fill:#aac3cd">jquery</text>
<text transform="translate(67,290)" font-size="25" style="fill:#93b9c7">updated</text>
<text transform="translate(343,71) rotate(-90)" font-size="25" style="fill:#93b9c7">jul</text>
<text transform="translate(270,301)" font-size="25" style="fill:#93b9c7">world</text>
<text transform="translate(227,152)" font-size="25" style="fill:#93b9c7">html</text>
<text transform="translate(28,153)" font-size="25" style="fill:#93b9c7">styled</text>
<text transform="translate(3,264)" font-size="25" style="fill:#93b9c7">flutter</text>
<text transform="translate(4,15)" font-size="25" style="fill:#93b9c7">app</text>
<text transform="translate(22,132) rotate(-90)" font-size="25" style="fill:#93b9c7">service</text>
<text transform="translate(349,465) rotate(-90)" font-size="25" style="fill:#93b9c7">events</text>
<text transform="translate(289,153)" font-size="25" style="fill:#93b9c7">axes</text>
<text transform="translate(202,336) rotate(-90)" font-size="25" style="fill:#93b9c7">game</text>
<text transform="translate(153,507)" font-size="19" style="fill:#93b9c7">brochstein</text>
<text transform="translate(14,281)" font-size="19" style="fill:#93b9c7">rice</text>
<text transform="translate(73,509) rotate(-90)" font-size="19" style="fill:#93b9c7">windows</text>
<text transform="translate(110,398)" font-size="19" style="fill:#93b9c7">java</text>
<text transform="translate(187,349)" font-size="19" style="fill:#93b9c7">vue</text>
<text transform="translate(54,95)" font-size="14" style="fill:#93b9c7">wordpress</text>
<text transform="translate(8,382)" font-size="14" style="fill:#93b9c7">student</text>
<text transform="translate(146,372) rotate(-90)" font-size="14" style="fill:#93b9c7">computer</text>
<text transform="translate(348,138) rotate(-90)" font-size="14" style="fill:#93b9c7">desktop</text>
<text transform="translate(118,495) rotate(-90)" font-size="14" style="fill:#93b9c7">university</text>
<text transform="translate(251,64) rotate(-90)" font-size="14" style="fill:#93b9c7">things</text>
<text transform="translate(3,504)" font-size="14" style="fill:#93b9c7">flag</text>
<text transform="translate(208,282)" font-size="14" style="fill:#93b9c7">indents</text>
<text transform="translate(112,506)" font-size="14" style="fill:#93b9c7">amd</text>
<text transform="translate(105,218)" font-size="10" style="fill:#7cafc2">cloud</text>
<text transform="translate(67,161)" font-size="10" style="fill:#7cafc2">summarize</text>
<text transform="translate(251,347)" font-size="10" style="fill:#7cafc2">posts</text>
<text transform="translate(191,358)" font-size="10" style="fill:#7cafc2">written</text>
<text transform="translate(25,29)" font-size="10" style="fill:#7cafc2">haxcon</text>
<text transform="translate(308,353)" font-size="10" style="fill:#7cafc2">hello</text>
<text transform="translate(54,8)" font-size="10" style="fill:#7cafc2">welcome</text>
<text transform="translate(131,207) rotate(-90)" font-size="10" style="fill:#7cafc2">talk</text>
<text transform="translate(202,161)" font-size="10" style="fill:#7cafc2">future</text>
<text transform="translate(294,32)" font-size="10" style="fill:#7cafc2">web</text>
<text transform="translate(168,404)" font-size="10" style="fill:#7cafc2">development</text>
<text transform="translate(308,83) rotate(-90)" font-size="10" style="fill:#7cafc2">today</text>
<text transform="translate(351,291) rotate(-90)" font-size="10" style="fill:#7cafc2">discussing</text>
<text transform="translate(23,104)" font-size="10" style="fill:#7cafc2">javascript</text>
<text transform="translate(318,82) rotate(-90)" font-size="10" style="fill:#7cafc2">rule</text>
<text transform="translate(283,162)" font-size="10" style="fill:#7cafc2">first</text>
<text transform="translate(10,289)" font-size="10" style="fill:#7cafc2">created</text>
<text transform="translate(36,36)" font-size="10" style="fill:#7cafc2">addition</text>
<text transform="translate(272,503)" font-size="10" style="fill:#7cafc2">converts</text>
<text transform="translate(87,302)" font-size="10" style="fill:#7cafc2">markdown</text>
<text transform="translate(179,228)" font-size="10" style="fill:#7cafc2">properly</text>
<text transform="translate(21,229)" font-size="10" style="fill:#7cafc2">formatted</text>
<text transform="translate(9,477) rotate(-90)" font-size="10" style="fill:#7cafc2">automatically</text>
<text transform="translate(118,142)" font-size="10" style="fill:#7cafc2">populates</text>
<text transform="translate(308,406)" font-size="10" style="fill:#7cafc2">fun</text>
<text transform="translate(55,13)" font-size="10" style="fill:#7cafc2">page</text>
<text transform="translate(259,327)" font-size="10" style="fill:#7cafc2">every</text>
<text transform="translate(203,139)" font-size="10" style="fill:#7cafc2">new</text>
<text transform="translate(154,183)" font-size="10" style="fill:#7cafc2">make</text>
<text transform="translate(326,160)" font-size="10" style="fill:#7cafc2">sorts</text>
<text transform="translate(60,352)" font-size="10" style="fill:#7cafc2">oldest</text>
<text transform="translate(287,461) rotate(-90)" font-size="10" style="fill:#7cafc2">recent</text>
<text transform="translate(251,230)" font-size="10" style="fill:#7cafc2">modification</text>
<text transform="translate(1,159)" font-size="10" style="fill:#7cafc2">date</text>
<text transform="translate(124,380)" font-size="10" style="fill:#7cafc2">hope</text>
<text transform="translate(213,18)" font-size="10" style="fill:#7cafc2">list</text>
<text transform="translate(106,229)" font-size="10" style="fill:#7cafc2">projects</text>
<text transform="translate(11,357) rotate(-90)" font-size="10" style="fill:#7cafc2">arranged</text>
<text transform="translate(109,105)" font-size="9" style="fill:#7cafc2">particular</text>
<text transform="translate(155,322) rotate(-90)" font-size="9" style="fill:#7cafc2">order</text>
<text transform="translate(291,379)" font-size="9" style="fill:#7cafc2">serveup</text>
<text transform="translate(213,64) rotate(-90)" font-size="9" style="fill:#7cafc2">students</text>
<text transform="translate(262,36)" font-size="9" style="fill:#7cafc2">sign</text>
<text transform="translate(46,299)" font-size="9" style="fill:#7cafc2">within</text>
<text transform="translate(284,278)" font-size="8" style="fill:#7cafc2">organization</text>
<text transform="translate(121,407)" font-size="8" style="fill:#7cafc2">high</text>
<text transform="translate(21,242)" font-size="8" style="fill:#7cafc2">school</text>
<text transform="translate(130,92)" font-size="8" style="fill:#7cafc2">office</text>
<text transform="translate(178,97)" font-size="8" style="fill:#7cafc2">arcade</text>
<text transform="translate(209,289)" font-size="8" style="fill:#7cafc2">player</text>
<text transform="translate(255,354)" font-size="8" style="fill:#7cafc2">targets</text>
<text transform="translate(292,391)" font-size="8" style="fill:#7cafc2">falling</text>
<text transform="translate(27,416)" font-size="8" style="fill:#7cafc2">blocks</text>
<text transform="translate(330,465) rotate(-90)" font-size="8" style="fill:#7cafc2">manipulating</text>
<text transform="translate(137,150)" font-size="8" style="fill:#7cafc2">crosshair</text>
<text transform="translate(141,34)" font-size="8" style="fill:#7cafc2">showcasing</text>
<text transform="translate(138,467)" font-size="8" style="fill:#7cafc2">architectural</text>
<text transform="translate(153,208)" font-size="8" style="fill:#7cafc2">merits</text>
<text transform="translate(242,160)" font-size="8" style="fill:#7cafc2">pavilion</text>
<text transform="translate(61,215) rotate(-90)" font-size="8" style="fill:#7cafc2">summary</text>
<text transform="translate(151,162)" font-size="8" style="fill:#7cafc2">project</text>
<text transform="translate(217,467)" font-size="8" style="fill:#7cafc2">architecture</text>
<text transform="translate(210,306)" font-size="8" style="fill:#7cafc2">class</text>
<text transform="translate(157,335)" font-size="8" style="fill:#7cafc2">toy</text>
<text transform="translate(239,132)" font-size="8" style="fill:#7cafc2">window</text>
<text transform="translate(63,270)" font-size="8" style="fill:#7cafc2">manager</text>
<text transform="translate(338,9)" font-size="8" style="fill:#7cafc2">x11</text>
<text transform="translate(24,404)" font-size="8" style="fill:#7cafc2">randomly</text>
<text transform="translate(75,18)" font-size="8" style="fill:#7cafc2">manages</text>
<text transform="translate(79,417) rotate(-90)" font-size="8" style="fill:#7cafc2">generalissimo</text>
<text transform="translate(152,196)" font-size="8" style="fill:#7cafc2">client</text>
<text transform="translate(80,511) rotate(-90)" font-size="8" style="fill:#7cafc2">webdiplomacy</text>
<text transform="translate(153,355)" font-size="8" style="fill:#7cafc2">net</text>
<text transform="translate(215,8)" font-size="8" style="fill:#7cafc2">dedicated</text>
<text transform="translate(330,211) rotate(-90)" font-size="8" style="fill:#7cafc2">hosting</text>
<text transform="translate(293,45)" font-size="8" style="fill:#7cafc2">popular</text>
<text transform="translate(105,76) rotate(-90)" font-size="8" style="fill:#7cafc2">strategy</text>
<text transform="translate(240,205) rotate(-90)" font-size="8" style="fill:#7cafc2">diplomacy</text>
<text transform="translate(99,244)" font-size="8" style="fill:#7cafc2">org</text>
<text transform="translate(354,59) rotate(-90)" font-size="8" style="fill:#7cafc2">wikipedia</text>
<text transform="translate(276,307)" font-size="8" style="fill:#7cafc2">esque</text>
<text transform="translate(53,338)" font-size="8" style="fill:#7cafc2">index</text>
<text transform="translate(54,58)" font-size="8" style="fill:#7cafc2">theatre</text>
<text transform="translate(301,212) rotate(-90)" font-size="8" style="fill:#7cafc2">philosophy</text>
<text transform="translate(30,437)" font-size="8" style="fill:#7cafc2">topics</text>
<text transform="translate(276,436) rotate(-90)" font-size="8" style="fill:#7cafc2">compiled</text>
<text transform="translate(250,337)" font-size="8" style="fill:#7cafc2">academic</text>
<text transform="translate(355,372) rotate(-90)" font-size="8" style="fill:#7cafc2">researchers</text>
<text transform="translate(34,160)" font-size="8" style="fill:#7cafc2">part</text>
<text transform="translate(16,92)" font-size="8" style="fill:#7cafc2">webdev</text>
<text transform="translate(251,301)" font-size="8" style="fill:#7cafc2">job</text>
<text transform="translate(339,308)" font-size="8" style="fill:#7cafc2">log</text>
<text transform="translate(156,306)" font-size="8" style="fill:#7cafc2">script</text>
<text transform="translate(252,123) rotate(-90)" font-size="8" style="fill:#7cafc2">analyze</text>
<text transform="translate(208,336)" font-size="8" style="fill:#7cafc2">video</text>
<text transform="translate(60,306)" font-size="8" style="fill:#7cafc2">logs</text>
<text transform="translate(306,447)" font-size="8" style="fill:#7cafc2">lab</text>
<text transform="translate(210,221) rotate(-90)" font-size="8" style="fill:#7cafc2">equipment</text>
<text transform="translate(2,136)" font-size="8" style="fill:#7cafc2">extract</text>
<text transform="translate(354,144) rotate(-90)" font-size="8" style="fill:#7cafc2">measurement</text>
<text transform="translate(326,509)" font-size="8" style="fill:#7cafc2">values</text>
<text transform="translate(210,369)" font-size="8" style="fill:#7cafc2">using</text>
<text transform="translate(196,268) rotate(-90)" font-size="8" style="fill:#7cafc2">vision</text>
<text transform="translate(197,146)" font-size="8" style="fill:#7cafc2">opencv</text>
<text transform="translate(206,260)" font-size="8" style="fill:#7cafc2">help</text>
<text transform="translate(116,66) rotate(-90)" font-size="8" style="fill:#7cafc2">duties</text>
<text transform="translate(102,329)" font-size="8" style="fill:#7cafc2">intern</text>
<text transform="translate(120,209) rotate(-90)" font-size="8" style="fill:#7cafc2">fannin</text>
<text transform="translate(173,458) rotate(-90)" font-size="8" style="fill:#7cafc2">innovation</text>
<text transform="translate(221,446)" font-size="8" style="fill:#7cafc2">studio</text>
<text transform="translate(82,381)" font-size="8" style="fill:#7cafc2">wankel</text>
<text transform="translate(238,289)" font-size="8" style="fill:#7cafc2">social</text>
<text transform="translate(223,76) rotate(-90)" font-size="8" style="fill:#7cafc2">platform</text>
<text transform="translate(3,147)" font-size="8" style="fill:#7cafc2">based</text>
<text transform="translate(207,130)" font-size="8" style="fill:#7cafc2">around</text>
<text transform="translate(268,210) rotate(-90)" font-size="8" style="fill:#7cafc2">central</text>
<text transform="translate(135,7)" font-size="7" style="fill:#7cafc2">timeline</text>
<text transform="translate(186,432)" font-size="7" style="fill:#7cafc2">users</text>
<text transform="translate(232,268) rotate(-90)" font-size="7" style="fill:#7cafc2">completed</text>
<text transform="translate(21,195)" font-size="7" style="fill:#7cafc2">sass</text>
<text transform="translate(24,457)" font-size="7" style="fill:#7cafc2">website</text>
<text transform="translate(287,509)" font-size="7" style="fill:#7cafc2">rendered</text>
<text transform="translate(312,359)" font-size="7" style="fill:#7cafc2">served</text>
<text transform="translate(35,333)" font-size="7" style="fill:#7cafc2">via</text>
<text transform="translate(318,74)" font-size="7" style="fill:#7cafc2">github</text>
<text transform="translate(65,69)" font-size="7" style="fill:#7cafc2">pages</text>
<text transform="translate(216,219) rotate(-90)" font-size="7" style="fill:#7cafc2">operate</text>
<text transform="translate(7,237) rotate(-90)" font-size="7" style="fill:#7cafc2">collection</text>
<text transform="translate(78,168)" font-size="7" style="fill:#7cafc2">jinja2</text>
<text transform="translate(202,295)" font-size="6" style="fill:#7cafc2">templates</text>
<text transform="translate(354,425) rotate(-90)" font-size="6" style="fill:#7cafc2">responsiveness</text>
<text transform="translate(287,143) rotate(-90)" font-size="6" style="fill:#7cafc2">across</text>
<text transform="translate(214,411)" font-size="6" style="fill:#7cafc2">mobile</text>
<text transform="translate(264,361)" font-size="6" style="fill:#7cafc2">browsers</text>
<text transform="translate(276,283)" font-size="6" style="fill:#7cafc2">programmer</text>
<text transform="translate(12,307) rotate(-90)" font-size="6" style="fill:#7cafc2">tech</text>
<text transform="translate(143,39)" font-size="6" style="fill:#7cafc2">enthusiast</text>
<text transform="translate(9,417)" font-size="6" style="fill:#7cafc2">arch</text>
<text transform="translate(188,442)" font-size="6" style="fill:#7cafc2">linux</text>
<text transform="translate(140,438)" font-size="6" style="fill:#7cafc2">user</text>
<text transform="translate(14,482) rotate(-90)" font-size="6" style="fill:#7cafc2">vexillologist</text>
<text transform="translate(273,70)" font-size="6" style="fill:#7cafc2">novice</text>
<text transform="translate(108,363) rotate(-90)" font-size="6" style="fill:#7cafc2">cook</text>
<text transform="translate(174,6)" font-size="6" style="fill:#7cafc2">proprietor</text>
<text transform="translate(43,20)" font-size="6" style="fill:#7cafc2">language</text>
<text transform="translate(41,109)" font-size="6" style="fill:#7cafc2">choice</text>
<text transform="translate(39,503)" font-size="6" style="fill:#7cafc2">versed</text>
<text transform="translate(256,85) rotate(-90)" font-size="6" style="fill:#7cafc2">especially</text>
<text transform="translate(203,310)" font-size="6" style="fill:#7cafc2">apps</text>
<text transform="translate(27,66) rotate(-90)" font-size="6" style="fill:#7cafc2">experience</text>
<text transform="translate(92,428)" font-size="6" style="fill:#7cafc2">css</text>
<text transform="translate(145,403)" font-size="6" style="fill:#7cafc2">used</text>
<text transform="translate(156,378)" font-size="6" style="fill:#7cafc2">materialize</text>
<text transform="translate(62,80)" font-size="6" style="fill:#7cafc2">php</text>
<text transform="translate(301,306)" font-size="6" style="fill:#7cafc2">freshman</text>
<text transform="translate(318,80)" font-size="6" style="fill:#7cafc2">year</text>
<text transform="translate(136,209) rotate(-90)" font-size="6" style="fill:#7cafc2">attended</text>
<text transform="translate(4,509)" font-size="6" style="fill:#7cafc2">texas</text>
<text transform="translate(285,259)" font-size="6" style="fill:#7cafc2">austin</text>
<text transform="translate(6,61) rotate(-90)" font-size="6" style="fill:#7cafc2">transferred</text>
<text transform="translate(146,360)" font-size="6" style="fill:#7cafc2">houston</text>
<text transform="translate(335,215) rotate(-90)" font-size="6" style="fill:#7cafc2">pursuing</text>
</svg>